<svg width="20" height="20" viewBox="0 0 20 20" fill="none" xmlns="http://www.w3.org/2000/svg">
<path fill-rule="evenodd" clip-rule="evenodd" d="M14.1357 14.9973C12.8152 16.1215 11.1035 16.8 9.23335 16.8C5.0544 16.8 1.66669 13.4122 1.66669 9.23329C1.66669 5.05434 5.0544 1.66663 9.23335 1.66663C13.4123 1.66663 16.8 5.05434 16.8 9.23329C16.8 11.0921 16.1298 12.7944 15.0177 14.1116L18.6497 17.7436L17.7658 18.6275L14.1357 14.9973ZM15.55 9.23329C15.55 12.7219 12.722 15.55 9.23335 15.55C5.74475 15.55 2.91669 12.7219 2.91669 9.23329C2.91669 5.74469 5.74475 2.91663 9.23335 2.91663C12.722 2.91663 15.55 5.74469 15.55 9.23329Z" fill="black" fill-opacity="0.7"/>
</svg>
