<svg width="40" height="40" viewBox="0 0 40 40" fill="none" xmlns="http://www.w3.org/2000/svg">
<g clip-path="url(#clip0_118_14)">
<path d="M34.0816 34.0823H28.1549V24.8005C28.1549 22.5873 28.1153 19.738 25.0724 19.738C21.9855 19.738 21.5131 22.1496 21.5131 24.6394V34.0816H15.5866V14.9948H21.2761V17.6032H21.3558C21.9252 16.6296 22.748 15.8287 23.7365 15.2857C24.7251 14.7428 25.8424 14.4781 26.9695 14.5199C32.9766 14.5199 34.0841 18.4712 34.0841 23.6115L34.0816 34.0823ZM8.89907 12.3859C6.99954 12.3862 5.45938 10.8465 5.45907 8.94695C5.45876 7.04742 6.99829 5.50726 8.89782 5.50695C10.7974 5.50648 12.3375 7.04617 12.3378 8.9457C12.338 9.85789 11.9758 10.7328 11.3309 11.3779C10.686 12.0231 9.81126 12.3856 8.89907 12.3859ZM11.8625 34.0824H5.92954V14.9948H11.8624V34.0823L11.8625 34.0824ZM37.0363 0.00272813H2.95141C1.34048 -0.0153969 0.0193823 1.27507 -0.000305176 2.88601V37.113C0.0187573 38.7248 1.33969 40.0165 2.95126 39.9996H37.0363C38.6513 40.0196 39.9774 38.7279 39.9997 37.113V2.88335C39.9767 1.26929 38.6505 -0.0210219 37.0363 7.18777e-05" fill="#0A66C2"/>
</g>
<defs>
<clipPath id="clip0_118_14">
<rect width="40" height="40" rx="20" fill="white"/>
</clipPath>
</defs>
</svg>
