<svg width="40" height="40" viewBox="0 0 40 40" fill="none" xmlns="http://www.w3.org/2000/svg">
<rect width="40" height="40" rx="20" fill="#55ACEE"/>
<g clip-path="url(#clip0_118_10)">
<path d="M37.1428 9.11209C35.859 9.67915 34.4972 10.0514 33.1027 10.2164C34.5552 9.34843 35.6704 7.97405 36.1956 6.33648C34.8148 7.15338 33.3042 7.72893 31.7289 8.03827C30.4457 6.67537 28.6177 5.82361 26.5945 5.82361C22.7097 5.82361 19.5602 8.96361 19.5602 12.8364C19.5602 13.3861 19.6224 13.9213 19.7423 14.4347C13.8963 14.1422 8.71328 11.3503 5.24386 7.10733C4.6385 8.14309 4.29163 9.3479 4.29163 10.633C4.29163 13.0661 5.53355 15.2125 7.42087 16.4702C6.30383 16.4353 5.21138 16.1345 4.23471 15.5929C4.2343 15.6223 4.2343 15.6517 4.2343 15.6812C4.2343 19.079 6.65895 21.9135 9.87671 22.5578C8.84089 22.8386 7.75439 22.8797 6.7002 22.678C7.59524 25.4641 10.1931 27.4916 13.271 27.5483C10.8636 29.4292 7.83055 30.5504 4.53511 30.5504C3.96725 30.5504 3.40743 30.5171 2.85712 30.4524C5.97002 32.4422 9.66738 33.6032 13.6397 33.6032C26.5781 33.6032 33.6532 22.917 33.6532 13.6497C33.6532 13.3455 33.6465 13.0431 33.6328 12.7424C35.0099 11.7499 36.1985 10.5205 37.1428 9.11209Z" fill="#FCFCFD"/>
</g>
<defs>
<clipPath id="clip0_118_10">
<rect width="34.2857" height="27.907" fill="white" transform="translate(2.85712 5.71387)"/>
</clipPath>
</defs>
</svg>
