<svg width="259" height="259" viewBox="0 0 259 259" fill="none" xmlns="http://www.w3.org/2000/svg">
<rect width="259" height="259" fill="white"/>
<path fill-rule="evenodd" clip-rule="evenodd" d="M103.514 34.5334C101.81 36.0621 100.027 37.4994 98.1717 38.8393C94.9558 40.9976 91.3406 42.4868 87.5419 43.2423C85.8908 43.566 84.1641 43.7063 80.7216 43.9761C72.0774 44.6668 67.75 45.0121 64.1456 46.2855C60.0231 47.7386 56.2787 50.0972 53.1879 53.1881C50.0971 56.2789 47.7384 60.0232 46.2854 64.1457C45.0119 67.7501 44.6666 72.0776 43.9759 80.7217C43.852 83.0065 43.6071 85.2832 43.2421 87.5421C42.4867 91.3407 40.9974 94.9559 38.8391 98.1718C37.9002 99.5748 36.7779 100.891 34.5332 103.514C28.9108 110.118 26.0942 113.42 24.443 116.874C20.6336 124.86 20.6336 134.14 24.443 142.126C26.0942 145.58 28.9108 148.882 34.5332 155.486C36.7779 158.109 37.9002 159.425 38.8391 160.828C40.9974 164.044 42.4867 167.659 43.2421 171.458C43.5659 173.109 43.7062 174.836 43.9759 178.278C44.6666 186.923 45.0119 191.25 46.2854 194.854C47.7384 198.977 50.0971 202.721 53.1879 205.812C56.2787 208.903 60.0231 211.262 64.1456 212.715C67.75 213.988 72.0774 214.333 80.7216 215.024C84.1641 215.294 85.8908 215.434 87.5419 215.758C91.3406 216.513 94.9558 218.013 98.1717 220.161C99.5746 221.1 100.891 222.222 103.514 224.467C110.118 230.089 113.42 232.906 116.874 234.557C124.859 238.366 134.14 238.366 142.126 234.557C145.579 232.906 148.882 230.089 155.486 224.467C158.109 222.222 159.425 221.1 160.828 220.161C164.044 218.002 167.659 216.513 171.458 215.758C173.109 215.434 174.836 215.294 178.278 215.024C186.922 214.333 191.25 213.988 194.854 212.715C198.977 211.262 202.721 208.903 205.812 205.812C208.903 202.721 211.261 198.977 212.714 194.854C213.988 191.25 214.333 186.923 215.024 178.278C215.294 174.836 215.434 173.109 215.758 171.458C216.513 167.659 218.013 164.044 220.161 160.828C221.1 159.425 222.222 158.109 224.467 155.486C230.089 148.882 232.906 145.58 234.557 142.126C238.366 134.14 238.366 124.86 234.557 116.874C232.906 113.42 230.089 110.118 224.467 103.514C222.938 101.81 221.501 100.027 220.161 98.1718C218.001 94.9565 216.504 91.3428 215.758 87.5421C215.393 85.2832 215.148 83.0065 215.024 80.7217C214.333 72.0776 213.988 67.7501 212.714 64.1457C211.261 60.0232 208.903 56.2789 205.812 53.1881C202.721 50.0972 198.977 47.7386 194.854 46.2855C191.25 45.0121 186.922 44.6668 178.278 43.9761C175.993 43.8522 173.717 43.6072 171.458 43.2423C167.657 42.4957 164.044 40.9989 160.828 38.8393C158.973 37.4994 157.19 36.0621 155.486 34.5334C148.882 28.9109 145.579 26.0943 142.126 24.4432C138.184 22.5565 133.87 21.5771 129.5 21.5771C125.13 21.5771 120.815 22.5565 116.874 24.4432C113.42 26.0943 110.118 28.9109 103.514 34.5334ZM176.692 106.438C178.217 104.769 179.04 102.576 178.989 100.315C178.938 98.0543 178.017 95.9004 176.418 94.3015C174.819 92.7026 172.665 91.7818 170.405 91.7308C168.144 91.6798 165.951 92.5026 164.281 94.0278L111.942 146.367L94.7184 129.155C93.049 127.629 90.8558 126.807 88.5951 126.858C86.3344 126.909 84.1805 127.829 82.5816 129.428C80.9827 131.027 80.0619 133.181 80.0109 135.442C79.96 137.703 80.7827 139.896 82.3079 141.565L105.726 164.983C107.373 166.627 109.604 167.55 111.931 167.55C114.258 167.55 116.489 166.627 118.136 164.983L176.692 106.438Z" fill="#009032"/>
</svg>
